<?xml version="1.0" encoding="UTF-8" standalone="no"?><!DOCTYPE svg PUBLIC "-//W3C//DTD SVG 1.1//EN" "http://www.w3.org/Graphics/SVG/1.1/DTD/svg11.dtd"><!-- Generated by graphviz version 2.40.1 (20161225.0304)
 --><!-- Title: %0 Pages: 1 --><svg xmlns="http://www.w3.org/2000/svg" xmlns:xlink="http://www.w3.org/1999/xlink" width="1173pt" height="685pt" viewBox="0.00 0.00 1173.15 684.96">
<g id="graph0" class="graph" transform="scale(1 1) rotate(0) translate(4 680.9587)">
<title>%0</title>
<polygon fill="#ffffff" stroke="transparent" points="-4,4 -4,-680.9587 1169.1468,-680.9587 1169.1468,4 -4,4"/>
<!-- Start0 -->
<g id="node1" class="node">
<title>Start0</title>
<ellipse fill="none" stroke="#000000" cx="34.1021" cy="-308.6517" rx="34.2045" ry="34.2045"/>
<text text-anchor="middle" x="34.1021" y="-304.4517" font-family="Times,serif" font-size="14.00" fill="#000000">Start0</text>
</g>
<!-- Number1 -->
<g id="node2" class="node">
<title>Number1</title>
<ellipse fill="none" stroke="#000000" cx="208.8109" cy="-590.6517" rx="47.5133" ry="47.5133"/>
<ellipse fill="none" stroke="#000000" cx="208.8109" cy="-590.6517" rx="51.5139" ry="51.5139"/>
<text text-anchor="middle" x="208.8109" y="-586.4517" font-family="Times,serif" font-size="14.00" fill="#000000">Number1</text>
</g>
<!-- Start0&#45;&gt;Number1 -->
<g id="edge1" class="edge">
<title>Start0-&gt;Number1</title>
<path fill="none" stroke="#000000" d="M45.3316,-340.9384C62.0204,-386.1658 96.3987,-469.6746 142.2912,-530.6517 147.7857,-537.9522 154.2616,-545.0618 160.9792,-551.6837"/>
<polygon fill="#000000" stroke="#000000" points="158.6671,-554.3149 168.3283,-558.6638 163.4878,-549.2393 158.6671,-554.3149"/>
<text text-anchor="middle" x="105.2477" y="-506.8517" font-family="Times,serif" font-size="14.00" fill="#000000">DIGIT</text>
</g>
<!-- WhiteSpace2 -->
<g id="node3" class="node">
<title>WhiteSpace2</title>
<ellipse fill="none" stroke="#000000" cx="208.8109" cy="-420.6517" rx="62.538" ry="62.538"/>
<ellipse fill="none" stroke="#000000" cx="208.8109" cy="-420.6517" rx="66.5392" ry="66.5392"/>
<text text-anchor="middle" x="208.8109" y="-416.4517" font-family="Times,serif" font-size="14.00" fill="#000000">WhiteSpace2</text>
</g>
<!-- Start0&#45;&gt;WhiteSpace2 -->
<g id="edge3" class="edge">
<title>Start0-&gt;WhiteSpace2</title>
<path fill="none" stroke="#000000" d="M62.9517,-327.1463C84.9976,-341.2791 116.2443,-361.3104 144.1651,-379.2095"/>
<polygon fill="#000000" stroke="#000000" points="142.4019,-382.2366 152.7095,-384.687 146.1798,-376.3435 142.4019,-382.2366"/>
<text text-anchor="middle" x="105.2477" y="-368.8517" font-family="Times,serif" font-size="14.00" fill="#000000">_,\t,\n</text>
</g>
<!-- Ident3 -->
<g id="node4" class="node">
<title>Ident3</title>
<ellipse fill="none" stroke="#000000" cx="1125.4397" cy="-211.6517" rx="35.8943" ry="35.8943"/>
<ellipse fill="none" stroke="#000000" cx="1125.4397" cy="-211.6517" rx="39.9153" ry="39.9153"/>
<text text-anchor="middle" x="1125.4397" y="-207.4517" font-family="Times,serif" font-size="14.00" fill="#000000">Ident3</text>
</g>
<!-- Start0&#45;&gt;Ident3 -->
<g id="edge5" class="edge">
<title>Start0-&gt;Ident3</title>
<path fill="none" stroke="#000000" d="M67.8266,-313.891C102.944,-318.886 159.5943,-325.6517 208.8109,-325.6517 208.8109,-325.6517 208.8109,-325.6517 962.6573,-325.6517 1015.9992,-325.6517 1064.2832,-284.0727 1094.1632,-251.136"/>
<polygon fill="#000000" stroke="#000000" points="1096.9925,-253.2197 1100.9878,-243.4071 1091.7453,-248.5865 1096.9925,-253.2197"/>
<text text-anchor="middle" x="518.2123" y="-329.8517" font-family="Times,serif" font-size="14.00" fill="#000000">Letter\u</text>
</g>
<!-- u7 -->
<g id="node6" class="node">
<title>u7</title>
<ellipse fill="none" stroke="#000000" cx="208.8109" cy="-276.6517" rx="20.8887" ry="20.8887"/>
<text text-anchor="middle" x="208.8109" y="-272.4517" font-family="Times,serif" font-size="14.00" fill="#000000">u7</text>
</g>
<!-- Start0&#45;&gt;u7 -->
<g id="edge6" class="edge">
<title>Start0-&gt;u7</title>
<path fill="none" stroke="#000000" d="M67.0455,-299.3325C73.3745,-297.7109 79.972,-296.1355 86.2042,-294.8517 117.1869,-288.4698 153.0146,-283.4161 177.9074,-280.2695"/>
<polygon fill="#000000" stroke="#000000" points="178.365,-283.7397 187.8602,-279.0394 177.5063,-276.7925 178.365,-283.7397"/>
<text text-anchor="middle" x="105.2477" y="-298.8517" font-family="Times,serif" font-size="14.00" fill="#000000">u</text>
</g>
<!-- s9 -->
<g id="node8" class="node">
<title>s9</title>
<ellipse fill="none" stroke="#000000" cx="518.2123" cy="-177.6517" rx="19.7419" ry="19.7419"/>
<text text-anchor="middle" x="518.2123" y="-173.4517" font-family="Times,serif" font-size="14.00" fill="#000000">s9</text>
</g>
<!-- Start0&#45;&gt;s9 -->
<g id="edge11" class="edge">
<title>Start0-&gt;s9</title>
<path fill="none" stroke="#000000" d="M62.4285,-289.6362C83.6602,-276.0858 113.8353,-258.2818 142.2912,-246.6517 264.1853,-196.8332 423.0002,-182.7888 488.2425,-178.992"/>
<polygon fill="#000000" stroke="#000000" points="488.4506,-182.486 498.2461,-178.4488 488.071,-175.4963 488.4506,-182.486"/>
<text text-anchor="middle" x="296.8305" y="-205.8517" font-family="Times,serif" font-size="14.00" fill="#000000">s</text>
</g>
<!-- word5 -->
<g id="node10" class="node">
<title>word5</title>
<ellipse fill="none" stroke="#000000" cx="208.8109" cy="-71.6517" rx="35.9174" ry="35.9174"/>
<text text-anchor="middle" x="208.8109" y="-67.4517" font-family="Times,serif" font-size="14.00" fill="#000000">word5</text>
</g>
<!-- Start0&#45;&gt;word5 -->
<g id="edge12" class="edge">
<title>Start0-&gt;word5</title>
<path fill="none" stroke="#000000" d="M36.9913,-274.4921C41.7151,-237.4349 54.0708,-178.2993 86.2042,-138.8517 106.6162,-113.7935 138.9622,-96.6228 165.3064,-85.9134"/>
<polygon fill="#000000" stroke="#000000" points="166.6559,-89.144 174.7074,-82.2576 164.1188,-82.62 166.6559,-89.144"/>
<text text-anchor="middle" x="105.2477" y="-142.8517" font-family="Times,serif" font-size="14.00" fill="#000000">(</text>
</g>
<!-- Number1&#45;&gt;Number1 -->
<g id="edge2" class="edge">
<title>Number1-&gt;Number1</title>
<path fill="none" stroke="#000000" d="M192.6019,-639.6896C193.8688,-651.447 199.2718,-660.1587 208.8109,-660.1587 215.369,-660.1587 219.9721,-656.041 222.6203,-649.6469"/>
<polygon fill="#000000" stroke="#000000" points="226.0796,-650.2313 225.0198,-639.6896 219.2744,-648.5913 226.0796,-650.2313"/>
<text text-anchor="middle" x="208.8109" y="-664.3587" font-family="Times,serif" font-size="14.00" fill="#000000">DIGIT</text>
</g>
<!-- WhiteSpace2&#45;&gt;WhiteSpace2 -->
<g id="edge4" class="edge">
<title>WhiteSpace2-&gt;WhiteSpace2</title>
<path fill="none" stroke="#000000" d="M193.2787,-485.5002C195.2975,-497.0817 200.4749,-505.1713 208.8109,-505.1713 214.5418,-505.1713 218.7799,-501.3477 221.525,-495.1945"/>
<polygon fill="#000000" stroke="#000000" points="224.9125,-496.0797 224.343,-485.5002 218.1907,-494.1257 224.9125,-496.0797"/>
<text text-anchor="middle" x="208.8109" y="-509.3713" font-family="Times,serif" font-size="14.00" fill="#000000">_,\t,\n</text>
</g>
<!-- Ident3&#45;&gt;Ident3 -->
<g id="edge20" class="edge">
<title>Ident3-&gt;Ident3</title>
<path fill="none" stroke="#000000" d="M1111.5859,-249.1161C1111.9331,-260.4777 1116.5511,-269.3588 1125.4397,-269.3588 1131.4118,-269.3588 1135.456,-265.3498 1137.5723,-259.2729"/>
<polygon fill="#000000" stroke="#000000" points="1141.0734,-259.5604 1139.2936,-249.1161 1134.1718,-258.3907 1141.0734,-259.5604"/>
<text text-anchor="middle" x="1125.4397" y="-273.5588" font-family="Times,serif" font-size="14.00" fill="#000000">Letter|digit</text>
</g>
<!-- keyword4 -->
<g id="node5" class="node">
<title>keyword4</title>
<ellipse fill="none" stroke="#000000" cx="962.6573" cy="-53.6517" rx="49.7926" ry="49.7926"/>
<ellipse fill="none" stroke="#000000" cx="962.6573" cy="-53.6517" rx="53.8039" ry="53.8039"/>
<text text-anchor="middle" x="962.6573" y="-49.4517" font-family="Times,serif" font-size="14.00" fill="#000000">keyword4</text>
</g>
<!-- keyword4&#45;&gt;Ident3 -->
<g id="edge19" class="edge">
<title>keyword4-&gt;Ident3</title>
<path fill="none" stroke="#000000" d="M1012.0501,-74.6329C1030.9882,-84.3333 1051.8425,-97.2069 1067.7326,-112.8517 1082.9205,-127.8052 1095.5143,-147.5798 1105.0206,-165.5075"/>
<polygon fill="#000000" stroke="#000000" points="1102.0403,-167.367 1109.7077,-174.6788 1108.2735,-164.1815 1102.0403,-167.367"/>
<text text-anchor="middle" x="1051.0208" y="-117.8517" font-family="Times,serif" font-size="14.00" fill="#000000">Letter</text>
</g>
<!-- u7&#45;&gt;Ident3 -->
<g id="edge15" class="edge">
<title>u7-&gt;Ident3</title>
<path fill="none" stroke="#000000" d="M229.5959,-277.2302C262.7635,-278.1019 329.71,-279.6517 386.4705,-279.6517 386.4705,-279.6517 386.4705,-279.6517 962.6573,-279.6517 1006.6102,-279.6517 1052.439,-258.2829 1084.2284,-239.5031"/>
<polygon fill="#000000" stroke="#000000" points="1086.0767,-242.4755 1092.8092,-234.2947 1082.4446,-236.4916 1086.0767,-242.4755"/>
<text text-anchor="middle" x="608.1989" y="-283.8517" font-family="Times,serif" font-size="14.00" fill="#000000">{Letter|digit}{\n}</text>
</g>
<!-- n8 -->
<g id="node7" class="node">
<title>n8</title>
<ellipse fill="none" stroke="#000000" cx="386.4705" cy="-230.6517" rx="20.8887" ry="20.8887"/>
<text text-anchor="middle" x="386.4705" y="-226.4517" font-family="Times,serif" font-size="14.00" fill="#000000">n8</text>
</g>
<!-- u7&#45;&gt;n8 -->
<g id="edge7" class="edge">
<title>u7-&gt;n8</title>
<path fill="none" stroke="#000000" d="M228.413,-269.4315C245.4116,-263.3571 270.7621,-254.7437 293.3305,-248.8517 313.9861,-243.4591 337.5925,-238.863 355.8714,-235.6384"/>
<polygon fill="#000000" stroke="#000000" points="356.6941,-239.0484 365.9555,-233.9028 355.5067,-232.1498 356.6941,-239.0484"/>
<text text-anchor="middle" x="296.8305" y="-252.8517" font-family="Times,serif" font-size="14.00" fill="#000000">n</text>
</g>
<!-- n8&#45;&gt;Ident3 -->
<g id="edge16" class="edge">
<title>n8-&gt;Ident3</title>
<path fill="none" stroke="#000000" d="M407.456,-231.6818C433.4474,-232.867 479.0834,-234.6517 518.2123,-234.6517 518.2123,-234.6517 518.2123,-234.6517 962.6573,-234.6517 1001.1599,-234.6517 1044.2859,-228.2651 1076.4712,-222.2227"/>
<polygon fill="#000000" stroke="#000000" points="1077.3625,-225.6153 1086.5168,-220.2815 1076.0343,-218.7424 1077.3625,-225.6153"/>
<text text-anchor="middle" x="725.0802" y="-238.8517" font-family="Times,serif" font-size="14.00" fill="#000000">{Letter|digit}{\s}</text>
</g>
<!-- n8&#45;&gt;s9 -->
<g id="edge8" class="edge">
<title>n8-&gt;s9</title>
<path fill="none" stroke="#000000" d="M405.9095,-222.8314C428.2776,-213.8326 465.1798,-198.9868 490.5397,-188.7845"/>
<polygon fill="#000000" stroke="#000000" points="491.9966,-191.971 499.9677,-184.9916 489.3839,-185.4769 491.9966,-191.971"/>
<text text-anchor="middle" x="475.3329" y="-198.8517" font-family="Times,serif" font-size="14.00" fill="#000000">s</text>
</g>
<!-- s9&#45;&gt;Ident3 -->
<g id="edge17" class="edge">
<title>s9-&gt;Ident3</title>
<path fill="none" stroke="#000000" d="M538.0706,-178.7636C622.0673,-183.4668 949.6205,-201.8072 1075.6459,-208.8637"/>
<polygon fill="#000000" stroke="#000000" points="1075.6068,-212.3669 1085.7868,-209.4315 1075.9982,-205.3778 1075.6068,-212.3669"/>
<text text-anchor="middle" x="841.5688" y="-201.8517" font-family="Times,serif" font-size="14.00" fill="#000000">{Letter|digit}{\e}</text>
</g>
<!-- e10 -->
<g id="node9" class="node">
<title>e10</title>
<ellipse fill="none" stroke="#000000" cx="725.0802" cy="-135.6517" rx="24.9604" ry="24.9604"/>
<text text-anchor="middle" x="725.0802" y="-131.4517" font-family="Times,serif" font-size="14.00" fill="#000000">e10</text>
</g>
<!-- s9&#45;&gt;e10 -->
<g id="edge9" class="edge">
<title>s9-&gt;e10</title>
<path fill="none" stroke="#000000" d="M535.2971,-167.6938C542.2466,-164.0558 550.4863,-160.2491 558.3694,-157.8517 602.3556,-144.4745 655.3016,-139.1547 689.5449,-137.0412"/>
<polygon fill="#000000" stroke="#000000" points="690.1803,-140.5114 699.9706,-136.4615 689.7917,-133.5222 690.1803,-140.5114"/>
<text text-anchor="middle" x="608.1989" y="-161.8517" font-family="Times,serif" font-size="14.00" fill="#000000">e</text>
</g>
<!-- e10&#45;&gt;Ident3 -->
<g id="edge18" class="edge">
<title>e10-&gt;Ident3</title>
<path fill="none" stroke="#000000" d="M750.2859,-135.5537C801.113,-135.7975 919.3216,-138.6026 1016.309,-157.8517 1039.8927,-162.5324 1046.0094,-164.3463 1067.7326,-174.6517 1073.1055,-177.2006 1078.5795,-180.1641 1083.9105,-183.2833"/>
<polygon fill="#000000" stroke="#000000" points="1082.3417,-186.4257 1092.7039,-188.6339 1085.9804,-180.4457 1082.3417,-186.4257"/>
<text text-anchor="middle" x="962.6573" y="-161.8517" font-family="Times,serif" font-size="14.00" fill="#000000">{Letter|digit}{\t}</text>
</g>
<!-- e10&#45;&gt;keyword4 -->
<g id="edge10" class="edge">
<title>e10-&gt;keyword4</title>
<path fill="none" stroke="#000000" d="M748.7285,-127.4895C784.159,-115.2606 852.1774,-91.784 902.0395,-74.574"/>
<polygon fill="#000000" stroke="#000000" points="903.444,-77.792 911.7548,-71.2208 901.1601,-71.175 903.444,-77.792"/>
<text text-anchor="middle" x="841.5688" y="-115.8517" font-family="Times,serif" font-size="14.00" fill="#000000">t</text>
</g>
<!-- word5&#45;&gt;word5 -->
<g id="edge13" class="edge">
<title>word5-&gt;word5</title>
<path fill="none" stroke="#000000" d="M192.3602,-103.3646C191.7257,-115.4026 197.2093,-125.3598 208.8109,-125.3598 216.9682,-125.3598 222.1009,-120.4371 224.2089,-113.3297"/>
<polygon fill="#000000" stroke="#000000" points="227.6917,-113.6769 225.2615,-103.3646 220.7304,-112.9416 227.6917,-113.6769"/>
<text text-anchor="middle" x="208.8109" y="-129.5598" font-family="Times,serif" font-size="14.00" fill="#000000">Letter</text>
</g>
<!-- STR_Literal6 -->
<g id="node11" class="node">
<title>STR_Literal6</title>
<ellipse fill="none" stroke="#000000" cx="386.4705" cy="-71.6517" rx="64.2721" ry="64.2721"/>
<ellipse fill="none" stroke="#000000" cx="386.4705" cy="-71.6517" rx="68.2804" ry="68.2804"/>
<text text-anchor="middle" x="386.4705" y="-67.4517" font-family="Times,serif" font-size="14.00" fill="#000000">STR_Literal6</text>
</g>
<!-- word5&#45;&gt;STR_Literal6 -->
<g id="edge14" class="edge">
<title>word5-&gt;STR_Literal6</title>
<path fill="none" stroke="#000000" d="M244.7629,-71.6517C263.0515,-71.6517 286.0417,-71.6517 308.151,-71.6517"/>
<polygon fill="#000000" stroke="#000000" points="308.2273,-75.1518 318.2273,-71.6517 308.2272,-68.1518 308.2273,-75.1518"/>
<text text-anchor="middle" x="296.8305" y="-75.8517" font-family="Times,serif" font-size="14.00" fill="#000000">)</text>
</g>
</g>
</svg>