<?xml version="1.0" encoding="UTF-8" standalone="no"?><!DOCTYPE svg PUBLIC "-//W3C//DTD SVG 1.1//EN" "http://www.w3.org/Graphics/SVG/1.1/DTD/svg11.dtd"><!-- Generated by graphviz version 2.40.1 (20161225.0304)
 --><!-- Title: %0 Pages: 1 --><svg xmlns="http://www.w3.org/2000/svg" xmlns:xlink="http://www.w3.org/1999/xlink" width="1125pt" height="655pt" viewBox="0.00 0.00 1124.86 655.30">
<g id="graph0" class="graph" transform="scale(1 1) rotate(0) translate(4 651.3017)">
<title>%0</title>
<polygon fill="#ffffff" stroke="transparent" points="-4,4 -4,-651.3017 1120.8621,-651.3017 1120.8621,4 -4,4"/>
<!-- Start -->
<g id="node1" class="node">
<title>Start</title>
<ellipse fill="none" stroke="#000000" cx="29.2736" cy="-299.8233" rx="29.049" ry="29.049"/>
<text text-anchor="middle" x="29.2736" y="-295.6233" font-family="Times,serif" font-size="14.00" fill="#000000">Start</text>
</g>
<!-- Number -->
<g id="node2" class="node">
<title>Number</title>
<ellipse fill="none" stroke="#000000" cx="194.3254" cy="-565.8233" rx="42.8422" ry="42.8422"/>
<ellipse fill="none" stroke="#000000" cx="194.3254" cy="-565.8233" rx="46.8576" ry="46.8576"/>
<text text-anchor="middle" x="194.3254" y="-561.6233" font-family="Times,serif" font-size="14.00" fill="#000000">Number</text>
</g>
<!-- Start&#45;&gt;Number -->
<g id="edge1" class="edge">
<title>Start-&gt;Number</title>
<path fill="none" stroke="#000000" d="M38.9413,-327.6971C54.4491,-369.9857 87.7593,-451.6814 132.6343,-510.8233 137.7461,-517.5602 143.774,-524.1103 150.0253,-530.2026"/>
<polygon fill="#000000" stroke="#000000" points="147.7319,-532.85 157.4248,-537.1277 152.5152,-527.7391 147.7319,-532.85"/>
<text text-anchor="middle" x="95.5908" y="-488.0233" font-family="Times,serif" font-size="14.00" fill="#000000">DIGIT</text>
</g>
<!-- WhiteSpace -->
<g id="node3" class="node">
<title>WhiteSpace</title>
<ellipse fill="none" stroke="#000000" cx="194.3254" cy="-405.8233" rx="57.8704" ry="57.8704"/>
<ellipse fill="none" stroke="#000000" cx="194.3254" cy="-405.8233" rx="61.8829" ry="61.8829"/>
<text text-anchor="middle" x="194.3254" y="-401.6233" font-family="Times,serif" font-size="14.00" fill="#000000">WhiteSpace</text>
</g>
<!-- Start&#45;&gt;WhiteSpace -->
<g id="edge3" class="edge">
<title>Start-&gt;WhiteSpace</title>
<path fill="none" stroke="#000000" d="M53.9836,-315.6925C75.0102,-329.1963 106.0999,-349.1628 133.6768,-366.8733"/>
<polygon fill="#000000" stroke="#000000" points="131.8018,-369.8287 142.1073,-372.2876 135.5844,-363.9388 131.8018,-369.8287"/>
<text text-anchor="middle" x="95.5908" y="-357.0233" font-family="Times,serif" font-size="14.00" fill="#000000">_,\t,\n</text>
</g>
<!-- Ident -->
<g id="node4" class="node">
<title>Ident</title>
<ellipse fill="none" stroke="#000000" cx="1081.9835" cy="-201.8233" rx="30.7716" ry="30.7716"/>
<ellipse fill="none" stroke="#000000" cx="1081.9835" cy="-201.8233" rx="34.7577" ry="34.7577"/>
<text text-anchor="middle" x="1081.9835" y="-197.6233" font-family="Times,serif" font-size="14.00" fill="#000000">Ident</text>
</g>
<!-- Start&#45;&gt;Ident -->
<g id="edge5" class="edge">
<title>Start-&gt;Ident</title>
<path fill="none" stroke="#000000" d="M58.4094,-304.3654C91.3236,-309.0957 146.5355,-315.8233 194.3254,-315.8233 194.3254,-315.8233 194.3254,-315.8233 928.858,-315.8233 981.4098,-315.8233 1027.6067,-272.0886 1055.1601,-238.7964"/>
<polygon fill="#000000" stroke="#000000" points="1058.2191,-240.5773 1061.7561,-230.5903 1052.7631,-236.1919 1058.2191,-240.5773"/>
<text text-anchor="middle" x="489.2414" y="-320.0233" font-family="Times,serif" font-size="14.00" fill="#000000">Letter\u</text>
</g>
<!-- u -->
<g id="node6" class="node">
<title>u</title>
<ellipse fill="none" stroke="#000000" cx="194.3254" cy="-269.8233" rx="18" ry="18"/>
<text text-anchor="middle" x="194.3254" y="-265.6233" font-family="Times,serif" font-size="14.00" fill="#000000">u</text>
</g>
<!-- Start&#45;&gt;u -->
<g id="edge6" class="edge">
<title>Start-&gt;u</title>
<path fill="none" stroke="#000000" d="M57.0528,-290.2384C63.4029,-288.2965 70.163,-286.4233 76.5473,-285.0233 106.76,-278.3978 142.0102,-274.3177 166.0177,-272.0749"/>
<polygon fill="#000000" stroke="#000000" points="166.5472,-275.5418 176.1986,-271.1712 165.9283,-268.5692 166.5472,-275.5418"/>
<text text-anchor="middle" x="95.5908" y="-289.0233" font-family="Times,serif" font-size="14.00" fill="#000000">u</text>
</g>
<!-- s -->
<g id="node8" class="node">
<title>s</title>
<ellipse fill="none" stroke="#000000" cx="489.2414" cy="-168.8233" rx="18" ry="18"/>
<text text-anchor="middle" x="489.2414" y="-164.6233" font-family="Times,serif" font-size="14.00" fill="#000000">s</text>
</g>
<!-- Start&#45;&gt;s -->
<g id="edge11" class="edge">
<title>Start-&gt;s</title>
<path fill="none" stroke="#000000" d="M53.9431,-284.058C74.3895,-271.5287 104.5469,-254.2655 132.6343,-242.8233 248.9157,-195.4526 399.3698,-177.0464 461.0153,-171.1725"/>
<polygon fill="#000000" stroke="#000000" points="461.4928,-174.6435 471.1321,-170.2464 460.8547,-167.6726 461.4928,-174.6435"/>
<text text-anchor="middle" x="277.5166" y="-204.0233" font-family="Times,serif" font-size="14.00" fill="#000000">s</text>
</g>
<!-- word -->
<g id="node10" class="node">
<title>word</title>
<ellipse fill="none" stroke="#000000" cx="194.3254" cy="-66.8233" rx="30.7597" ry="30.7597"/>
<text text-anchor="middle" x="194.3254" y="-62.6233" font-family="Times,serif" font-size="14.00" fill="#000000">word</text>
</g>
<!-- Start&#45;&gt;word -->
<g id="edge12" class="edge">
<title>Start-&gt;word</title>
<path fill="none" stroke="#000000" d="M34.4409,-270.7278C42.5076,-227.9631 58.9972,-150.8387 76.5473,-129.0233 96.533,-104.1802 129.1575,-88.0542 155.0079,-78.4622"/>
<polygon fill="#000000" stroke="#000000" points="156.2754,-81.7266 164.5433,-75.1013 153.9484,-75.1246 156.2754,-81.7266"/>
<text text-anchor="middle" x="95.5908" y="-134.0233" font-family="Times,serif" font-size="14.00" fill="#000000">(</text>
</g>
<!-- Number&#45;&gt;Number -->
<g id="edge2" class="edge">
<title>Number-&gt;Number</title>
<path fill="none" stroke="#000000" d="M179.0856,-609.9593C179.9564,-621.6484 185.0364,-630.5017 194.3254,-630.5017 200.7117,-630.5017 205.1084,-626.3172 207.5157,-619.9034"/>
<polygon fill="#000000" stroke="#000000" points="210.9745,-620.46 209.5653,-609.9593 204.1186,-619.0469 210.9745,-620.46"/>
<text text-anchor="middle" x="194.3254" y="-634.7017" font-family="Times,serif" font-size="14.00" fill="#000000">DIGIT</text>
</g>
<!-- WhiteSpace&#45;&gt;WhiteSpace -->
<g id="edge4" class="edge">
<title>WhiteSpace-&gt;WhiteSpace</title>
<path fill="none" stroke="#000000" d="M179.6862,-465.9446C181.4379,-477.4078 186.3176,-485.5144 194.3254,-485.5144 199.7057,-485.5144 203.6739,-481.8549 206.23,-475.9767"/>
<polygon fill="#000000" stroke="#000000" points="209.7115,-476.513 208.9647,-465.9446 202.9579,-474.672 209.7115,-476.513"/>
<text text-anchor="middle" x="194.3254" y="-489.7144" font-family="Times,serif" font-size="14.00" fill="#000000">_,\t,\n</text>
</g>
<!-- Ident&#45;&gt;Ident -->
<g id="edge20" class="edge">
<title>Ident-&gt;Ident</title>
<path fill="none" stroke="#000000" d="M1069.2366,-234.3544C1069.1017,-245.6112 1073.3507,-254.7019 1081.9835,-254.7019 1087.7836,-254.7019 1091.6049,-250.5982 1093.4472,-244.4911"/>
<polygon fill="#000000" stroke="#000000" points="1096.9467,-244.7148 1094.7304,-234.3544 1090.0021,-243.8357 1096.9467,-244.7148"/>
<text text-anchor="middle" x="1081.9835" y="-258.9019" font-family="Times,serif" font-size="14.00" fill="#000000">Letter|digit</text>
</g>
<!-- keyword -->
<g id="node5" class="node">
<title>keyword</title>
<ellipse fill="none" stroke="#000000" cx="928.858" cy="-48.8233" rx="44.6616" ry="44.6616"/>
<ellipse fill="none" stroke="#000000" cx="928.858" cy="-48.8233" rx="48.6472" ry="48.6472"/>
<text text-anchor="middle" x="928.858" y="-44.6233" font-family="Times,serif" font-size="14.00" fill="#000000">keyword</text>
</g>
<!-- keyword&#45;&gt;Ident -->
<g id="edge19" class="edge">
<title>keyword-&gt;Ident</title>
<path fill="none" stroke="#000000" d="M974.5003,-66.5541C993.0802,-75.426 1013.7484,-87.6017 1029.1048,-103.0233 1044.9586,-118.9443 1057.2699,-140.6078 1066.0084,-159.5924"/>
<polygon fill="#000000" stroke="#000000" points="1062.8948,-161.2064 1070.1314,-168.9448 1069.3,-158.3826 1062.8948,-161.2064"/>
<text text-anchor="middle" x="1012.393" y="-108.0233" font-family="Times,serif" font-size="14.00" fill="#000000">Letter</text>
</g>
<!-- u&#45;&gt;Ident -->
<g id="edge15" class="edge">
<title>u-&gt;Ident</title>
<path fill="none" stroke="#000000" d="M212.4739,-269.8233C243.2826,-269.8233 307.7856,-269.8233 362.3281,-269.8233 362.3281,-269.8233 362.3281,-269.8233 928.858,-269.8233 971.6141,-269.8233 1015.7537,-247.4048 1045.592,-228.3124"/>
<polygon fill="#000000" stroke="#000000" points="1047.5671,-231.2025 1053.9951,-222.7804 1043.718,-225.3557 1047.5671,-231.2025"/>
<text text-anchor="middle" x="579.228" y="-274.0233" font-family="Times,serif" font-size="14.00" fill="#000000">{Letter|digit}{\n}</text>
</g>
<!-- n -->
<g id="node7" class="node">
<title>n</title>
<ellipse fill="none" stroke="#000000" cx="362.3281" cy="-223.8233" rx="18" ry="18"/>
<text text-anchor="middle" x="362.3281" y="-219.6233" font-family="Times,serif" font-size="14.00" fill="#000000">n</text>
</g>
<!-- u&#45;&gt;n -->
<g id="edge7" class="edge">
<title>u-&gt;n</title>
<path fill="none" stroke="#000000" d="M210.791,-262.3503C226.6831,-255.4053 251.5707,-245.2263 274.0166,-239.0233 293.7611,-233.5667 316.5574,-229.7021 334.0428,-227.2353"/>
<polygon fill="#000000" stroke="#000000" points="334.7224,-230.6757 344.1689,-225.8783 333.7926,-223.7377 334.7224,-230.6757"/>
<text text-anchor="middle" x="277.5166" y="-243.0233" font-family="Times,serif" font-size="14.00" fill="#000000">n</text>
</g>
<!-- n&#45;&gt;Ident -->
<g id="edge16" class="edge">
<title>n-&gt;Ident</title>
<path fill="none" stroke="#000000" d="M380.4022,-224.0552C405.0174,-224.3506 450.4612,-224.8233 489.2414,-224.8233 489.2414,-224.8233 489.2414,-224.8233 928.858,-224.8233 965.9317,-224.8233 1007.4999,-218.1484 1037.961,-211.9904"/>
<polygon fill="#000000" stroke="#000000" points="1038.7667,-215.3978 1047.8429,-209.9322 1037.3393,-208.5448 1038.7667,-215.3978"/>
<text text-anchor="middle" x="696.1093" y="-229.0233" font-family="Times,serif" font-size="14.00" fill="#000000">{Letter|digit}{\s}</text>
</g>
<!-- n&#45;&gt;s -->
<g id="edge8" class="edge">
<title>n-&gt;s</title>
<path fill="none" stroke="#000000" d="M378.9198,-216.633C400.3923,-207.3275 438.0404,-191.0121 463.3057,-180.063"/>
<polygon fill="#000000" stroke="#000000" points="464.8619,-183.2031 472.6457,-176.0153 462.0785,-176.7803 464.8619,-183.2031"/>
<text text-anchor="middle" x="446.362" y="-192.0233" font-family="Times,serif" font-size="14.00" fill="#000000">s</text>
</g>
<!-- s&#45;&gt;Ident -->
<g id="edge17" class="edge">
<title>s-&gt;Ident</title>
<path fill="none" stroke="#000000" d="M507.3047,-169.8289C587.8996,-174.3159 915.9904,-192.5819 1036.933,-199.3151"/>
<polygon fill="#000000" stroke="#000000" points="1036.7896,-202.8125 1046.9687,-199.8739 1037.1788,-195.8233 1036.7896,-202.8125"/>
<text text-anchor="middle" x="812.5979" y="-193.0233" font-family="Times,serif" font-size="14.00" fill="#000000">{Letter|digit}{\e}</text>
</g>
<!-- e -->
<g id="node9" class="node">
<title>e</title>
<ellipse fill="none" stroke="#000000" cx="696.1093" cy="-132.8233" rx="18" ry="18"/>
<text text-anchor="middle" x="696.1093" y="-128.6233" font-family="Times,serif" font-size="14.00" fill="#000000">e</text>
</g>
<!-- s&#45;&gt;e -->
<g id="edge9" class="edge">
<title>s-&gt;e</title>
<path fill="none" stroke="#000000" d="M504.6711,-159.0421C511.9046,-154.9342 520.8075,-150.5348 529.3985,-148.0233 576.5944,-134.2257 634.2237,-132.0265 667.8812,-132.1217"/>
<polygon fill="#000000" stroke="#000000" points="667.8888,-135.6218 677.923,-132.2214 667.9583,-128.6221 667.8888,-135.6218"/>
<text text-anchor="middle" x="579.228" y="-152.0233" font-family="Times,serif" font-size="14.00" fill="#000000">e</text>
</g>
<!-- e&#45;&gt;Ident -->
<g id="edge18" class="edge">
<title>e-&gt;Ident</title>
<path fill="none" stroke="#000000" d="M714.4229,-132.1686C759.5905,-130.9081 879.7546,-129.7126 977.6812,-148.0233 1001.3153,-152.4424 1007.5942,-154.0813 1029.1048,-164.8233 1034.7622,-167.6484 1040.4951,-171.0262 1045.9954,-174.5756"/>
<polygon fill="#000000" stroke="#000000" points="1044.1537,-177.5551 1054.4028,-180.2398 1048.0649,-171.7497 1044.1537,-177.5551"/>
<text text-anchor="middle" x="928.858" y="-152.0233" font-family="Times,serif" font-size="14.00" fill="#000000">{Letter|digit}{\t}</text>
</g>
<!-- e&#45;&gt;keyword -->
<g id="edge10" class="edge">
<title>e-&gt;keyword</title>
<path fill="none" stroke="#000000" d="M712.446,-125.0007C725.9032,-118.6938 745.5643,-109.7913 763.1611,-103.0233 799.0024,-89.2382 840.0167,-75.8041 872.2729,-65.7592"/>
<polygon fill="#000000" stroke="#000000" points="873.468,-69.0532 881.9868,-62.7539 871.3991,-62.3659 873.468,-69.0532"/>
<text text-anchor="middle" x="812.5979" y="-108.0233" font-family="Times,serif" font-size="14.00" fill="#000000">t</text>
</g>
<!-- word&#45;&gt;word -->
<g id="edge13" class="edge">
<title>word-&gt;word</title>
<path fill="none" stroke="#000000" d="M179.1344,-93.9665C177.8907,-105.6767 182.9543,-115.7029 194.3254,-115.7029 202.1431,-115.7029 206.9795,-110.9639 208.8346,-104.1969"/>
<polygon fill="#000000" stroke="#000000" points="212.3436,-104.1772 209.5165,-93.9665 205.3591,-103.7116 212.3436,-104.1772"/>
<text text-anchor="middle" x="194.3254" y="-119.9029" font-family="Times,serif" font-size="14.00" fill="#000000">Letter</text>
</g>
<!-- STR_Literal -->
<g id="node11" class="node">
<title>STR_Literal</title>
<ellipse fill="none" stroke="#000000" cx="362.3281" cy="-66.8233" rx="59.1356" ry="59.1356"/>
<ellipse fill="none" stroke="#000000" cx="362.3281" cy="-66.8233" rx="63.1237" ry="63.1237"/>
<text text-anchor="middle" x="362.3281" y="-62.6233" font-family="Times,serif" font-size="14.00" fill="#000000">STR_Literal</text>
</g>
<!-- word&#45;&gt;STR_Literal -->
<g id="edge14" class="edge">
<title>word-&gt;STR_Literal</title>
<path fill="none" stroke="#000000" d="M225.5317,-66.8233C243.3886,-66.8233 266.5984,-66.8233 288.8141,-66.8233"/>
<polygon fill="#000000" stroke="#000000" points="288.9286,-70.3234 298.9286,-66.8233 288.9285,-63.3234 288.9286,-70.3234"/>
<text text-anchor="middle" x="277.5166" y="-71.0233" font-family="Times,serif" font-size="14.00" fill="#000000">)</text>
</g>
</g>
</svg>